<svg width="170" height="221" viewBox="0 0 170 221" fill="none" xmlns="http://www.w3.org/2000/svg">
<g id="&#240;&#159;&#166;&#134; icon &#34;droplet&#34;" filter="url(#filter0_d_82_1455)">
<path id="Vector" d="M85 0L75.82 8.81022C72.85 11.6606 4 78.5146 4 135.263C4 178.018 40.45 213 85 213C129.55 213 166 178.018 166 135.263C166 78.7737 97.15 11.6606 94.18 8.81022L85 0ZM44.5 122.307C52.06 122.307 58 128.007 58 135.263C58 149.515 70.15 161.175 85 161.175C92.56 161.175 98.5 166.876 98.5 174.131C98.5 181.387 92.56 187.088 85 187.088C55.3 187.088 31 163.766 31 135.263C31 128.007 36.94 122.307 44.5 122.307Z" fill="#FF2424"/>
</g>
<defs>
<filter id="filter0_d_82_1455" x="0" y="0" width="170" height="221" filterUnits="userSpaceOnUse" color-interpolation-filters="sRGB">
<feFlood flood-opacity="0" result="BackgroundImageFix"/>
<feColorMatrix in="SourceAlpha" type="matrix" values="0 0 0 0 0 0 0 0 0 0 0 0 0 0 0 0 0 0 127 0" result="hardAlpha"/>
<feOffset dy="4"/>
<feGaussianBlur stdDeviation="2"/>
<feComposite in2="hardAlpha" operator="out"/>
<feColorMatrix type="matrix" values="0 0 0 0 0 0 0 0 0 0 0 0 0 0 0 0 0 0 0.25 0"/>
<feBlend mode="normal" in2="BackgroundImageFix" result="effect1_dropShadow_82_1455"/>
<feBlend mode="normal" in="SourceGraphic" in2="effect1_dropShadow_82_1455" result="shape"/>
</filter>
</defs>
</svg>
