<svg width="26" height="26" viewBox="0 0 26 26" fill="none" xmlns="http://www.w3.org/2000/svg">
<g id="Image Hero">
<path id="Ellipse 2" d="M26 13C26 20.1797 20.1797 26 13 26C5.8203 26 0 20.1797 0 13C0 5.8203 5.8203 0 13 0C20.1797 0 26 5.8203 26 13Z" fill="#FFE4E4"/>
<path id="Vector" d="M13.0183 2.40186L12.1043 3.27902C11.8086 3.5628 4.9538 10.2189 4.9538 15.8688C4.9538 20.1257 8.58282 23.6085 13.0183 23.6085C17.4538 23.6085 21.0828 20.1257 21.0828 15.8688C21.0828 10.2447 14.228 3.5628 13.9323 3.27902L13.0183 2.40186ZM8.98605 14.5789C9.73873 14.5789 10.3301 15.1465 10.3301 15.8688C10.3301 17.2878 11.5398 18.4487 13.0183 18.4487C13.771 18.4487 14.3624 19.0163 14.3624 19.7387C14.3624 20.461 13.771 21.0286 13.0183 21.0286C10.0613 21.0286 7.64196 18.7067 7.64196 15.8688C7.64196 15.1465 8.23336 14.5789 8.98605 14.5789Z" fill="#FF2424"/>
</g>
</svg>
