<svg width="273" height="358" viewBox="0 0 273 358" fill="none" xmlns="http://www.w3.org/2000/svg">
<path d="M136.308 0.463379L120.911 15.2402C115.93 20.0209 0.452087 132.151 0.452087 227.33C0.452087 299.041 61.5872 357.714 136.308 357.714C211.029 357.714 272.164 299.041 272.164 227.33C272.164 132.585 156.686 20.0209 151.705 15.2402L136.308 0.463379ZM68.38 205.6C81.0599 205.6 91.0226 215.161 91.0226 227.33C91.0226 251.234 111.401 270.792 136.308 270.792C148.988 270.792 158.951 280.353 158.951 292.522C158.951 304.691 148.988 314.253 136.308 314.253C86.4941 314.253 45.7374 275.138 45.7374 227.33C45.7374 215.161 55.7001 205.6 68.38 205.6Z" fill="#FF2424"/>
</svg>
